<svg id="Layer_1" data-name="Layer 1" xmlns="http://www.w3.org/2000/svg" viewBox="0 0 1200 734.21"><title>1Architecture Illustration</title><polygon points="822.07 41.55 555.3 71.22 555.3 420.65 822.07 467.18 822.07 41.55" style="fill:#f0f7fc"/><path d="M759.86,132.42c.69,19.8.64,28.64.38,56.14-.16,17.08.34,28,0,45.06-.38,19.47,3.71,168.12,3.46,196.26-46.06-9.51-80.44-10.34-132.93-21.17.33-18.42,1-154.09,1.78-180.06,1.54-52.48-.44-84.5.84-125.7,42.13-.4,82.12-5.64,126.45-7Z" style="fill:none;stroke:#828eaa;stroke-miterlimit:10"/><polygon points="662.09 108.32 641.03 109.57 640.96 118.1 662.01 118.47 662.09 108.32" style="fill:none;stroke:#828eaa;stroke-miterlimit:10;fill-rule:evenodd"/><line x1="662.09" y1="108.32" x2="640.96" y2="118.1" style="fill:none;stroke:#828eaa;stroke-miterlimit:10"/><line x1="641.03" y1="109.57" x2="662.01" y2="118.47" style="fill:none;stroke:#828eaa;stroke-miterlimit:10"/><line x1="690.44" y1="112.38" x2="682.73" y2="112.57" style="fill:none;stroke:#828eaa;stroke-miterlimit:10"/><line x1="700.47" y1="112.13" x2="694.93" y2="112.31" style="fill:none;stroke:#828eaa;stroke-miterlimit:10"/><line x1="710.82" y1="111.88" x2="703.88" y2="112.05" style="fill:none;stroke:#828eaa;stroke-miterlimit:10"/><line x1="721.25" y1="111.63" x2="715.09" y2="111.78" style="fill:none;stroke:#828eaa;stroke-miterlimit:10"/><line x1="730.94" y1="111.4" x2="724.92" y2="111.54" style="fill:none;stroke:#828eaa;stroke-miterlimit:10"/><line x1="741.77" y1="111.14" x2="735.44" y2="111.29" style="fill:none;stroke:#828eaa;stroke-miterlimit:10"/><line x1="753.56" y1="110.85" x2="745.92" y2="111.04" style="fill:none;stroke:#828eaa;stroke-miterlimit:10"/><polygon points="751.23 122.44 641.82 124.02 642.57 167.98 750.85 166.36 751.23 122.44" style="fill:none;stroke:#828eaa;stroke-miterlimit:10"/><line x1="750.85" y1="166.36" x2="641.82" y2="124.02" style="fill:none;stroke:#828eaa;stroke-miterlimit:10"/><line x1="642.57" y1="167.98" x2="751.21" y2="123.97" style="fill:none;stroke:#828eaa;stroke-miterlimit:10"/><line x1="720.34" y1="183.7" x2="672.7" y2="184.13" style="fill:none;stroke:#828eaa;stroke-miterlimit:10"/><line x1="662.4" y1="189.86" x2="729.87" y2="189.8" style="fill:none;stroke:#828eaa;stroke-miterlimit:10"/><line x1="721.87" y1="194.77" x2="673.84" y2="195.2" style="fill:none;stroke:#828eaa;stroke-miterlimit:10"/><line x1="687.73" y1="220.79" x2="654.26" y2="219.64" style="fill:none;stroke:#828eaa;stroke-miterlimit:10"/><line x1="651.06" y1="225.37" x2="687.33" y2="226.9" style="fill:none;stroke:#828eaa;stroke-miterlimit:10"/><line x1="687.84" y1="233.28" x2="655.41" y2="232.14" style="fill:none;stroke:#828eaa;stroke-miterlimit:10"/><line x1="687.84" y1="240.23" x2="651.15" y2="239.08" style="fill:none;stroke:#828eaa;stroke-miterlimit:10"/><line x1="704.73" y1="299.06" x2="738.2" y2="300.2" style="fill:none;stroke:#828eaa;stroke-miterlimit:10"/><line x1="741.4" y1="294.47" x2="705.13" y2="292.95" style="fill:none;stroke:#828eaa;stroke-miterlimit:10"/><line x1="704.62" y1="286.56" x2="737.05" y2="287.71" style="fill:none;stroke:#828eaa;stroke-miterlimit:10"/><line x1="704.62" y1="278.04" x2="741.31" y2="279.18" style="fill:none;stroke:#828eaa;stroke-miterlimit:10"/><polygon points="696.59 210.05 697.24 248.02 747.78 249.04 747.13 209.49 696.59 210.05" style="fill:none;stroke:#828eaa;stroke-miterlimit:10"/><line x1="696.59" y1="210.05" x2="747.78" y2="249.04" style="fill:none;stroke:#828eaa;stroke-miterlimit:10"/><line x1="747.13" y1="209.49" x2="697.24" y2="248.02" style="fill:none;stroke:#828eaa;stroke-miterlimit:10"/><polygon points="691.13 307.1 641.24 305.63 640.58 268.6 691.13 269.62 691.44 287.85 691.13 307.1" style="fill:none;stroke:#828eaa;stroke-miterlimit:10"/><line x1="640.58" y1="268.6" x2="691.13" y2="307.1" style="fill:none;stroke:#828eaa;stroke-miterlimit:10"/><line x1="691.13" y1="269.62" x2="641.24" y2="305.63" style="fill:none;stroke:#828eaa;stroke-miterlimit:10"/><path d="M608.73,142.52c17.29-.67,39.76-3.25,45-.23-2.07,3.65-4.08,4.77-8.15,5.79,2.39-.3,4.9,1.28,8.47-5.5-1.8-3.47-3.4-5.77-7.16-8.14" style="fill:none;stroke:#ff8c08;stroke-miterlimit:10;fill-rule:evenodd"/><path d="M591.54,371.46c5.8-10,22.21-19.58,32.94-23.87,5.63-2.25,12.07-4.49,17.52-1.84-1.81,3.78-3.74,5.05-7.72,6.34,2.36-.47,5,.94,8.07-6.07-2-3.34-3.79-5.53-7.71-7.62" style="fill:none;stroke:#ff8c08;stroke-miterlimit:10;fill-rule:evenodd"/><line x1="687.73" y1="339.16" x2="654.26" y2="338.01" style="fill:none;stroke:#828eaa;stroke-miterlimit:10"/><line x1="651.06" y1="343.74" x2="687.33" y2="345.27" style="fill:none;stroke:#828eaa;stroke-miterlimit:10"/><line x1="687.84" y1="351.65" x2="655.41" y2="350.51" style="fill:none;stroke:#828eaa;stroke-miterlimit:10"/><line x1="687.84" y1="360.18" x2="651.15" y2="359.03" style="fill:none;stroke:#828eaa;stroke-miterlimit:10"/><polygon points="696.59 330 697.24 367.97 747.78 373.72 747.13 332.59 696.59 330" style="fill:none;stroke:#828eaa;stroke-miterlimit:10"/><line x1="696.59" y1="331.58" x2="747.78" y2="372.14" style="fill:none;stroke:#828eaa;stroke-miterlimit:10"/><line x1="747.13" y1="332.59" x2="697.24" y2="367.97" style="fill:none;stroke:#828eaa;stroke-miterlimit:10"/><path d="M690,349c-.49,2.38-1,4.86-2.46,6.66-1.73,2.16-4.4,2.93-6.93,3.59-6.06,1.6-25.4,11-30.78,5-4.24-4.72.33-13.62,2.8-17.75C661.1,332.42,696,320.2,690,349Z" style="fill:none;stroke:#ff8c08;stroke-miterlimit:10"/><polygon points="1200 0 840.22 39.41 840.22 470.34 1200 533.01 1200 0" style="fill:#f0f7fc"/><polygon points="540.35 72.52 325.44 96.14 325.44 380.64 540.35 418.1 540.35 72.52" style="fill:#f0f7fc"/><polygon points="312.74 97.44 145.65 115.9 145.65 349.44 312.74 378.44 312.74 97.44" style="fill:#f0f7fc"/><polygon points="134.91 117.43 0.64 131.63 0 324.18 136.55 347.86 134.91 117.43" style="fill:#f0f7fc"/><path d="M83.83,215.27c3.59-.6,8.23-4.39,10.69-7.08,1.29-1.41,2.66-3.07,2.49-5a3.38,3.38,0,0,0-2.73,1.57c.41-.64.28-1.57,2.69-1.7a5.68,5.68,0,0,1,1.39,3.12" style="fill:none;stroke:#ff8c08;stroke-miterlimit:10;fill-rule:evenodd"/><path d="M80.1,242.29c1.52,3.31,6.39,6.8,9.63,8.47,1.7.87,3.65,1.76,5.44,1.1a3.36,3.36,0,0,0-2.23-2.23c.73.22,1.59-.14,2.35,2.15a5.72,5.72,0,0,1-2.65,2.16" style="fill:none;stroke:#ff8c08;stroke-miterlimit:10;fill-rule:evenodd"/><path d="M66.55,242c-1.1,8.87.32,22.19,1.72,29.65.74,3.92,1.67,8.19,3.55,9,.51-3.19.37-1.39-.22-4,.42,1.34,1.36-1.82.37,4-1.28,1.19-3.35-1.66-4.76-2.09" style="fill:none;stroke:#ff8c08;stroke-miterlimit:10;fill-rule:evenodd"/><path d="M68.2,212.76c1.1-8.87-.32-22.19-1.73-29.65-.73-3.92-1.66-8.19-3.54-9-.51,3.18-.37,1.39.22,4-.43-1.34-1.36,1.83-.37-4,1.28-1.19,3.35,1.67,4.75,2.09" style="fill:none;stroke:#ff8c08;stroke-miterlimit:10;fill-rule:evenodd"/><path d="M52.68,241.35c-3.54.87-7.89,5-10.14,7.86-1.17,1.5-2.42,3.26-2.11,5.14a3.34,3.34,0,0,0,2.6-1.77c-.35.67-.16,1.59-2.55,1.9a5.73,5.73,0,0,1-1.61-3" style="fill:none;stroke:#ff8c08;stroke-miterlimit:10;fill-rule:evenodd"/><path d="M45.14,222.2c-1.13-3.47-5.56-7.51-8.58-9.54-1.58-1.07-3.42-2.18-5.28-1.73a3.38,3.38,0,0,0,2,2.47c-.7-.3-1.59,0-2.08-2.41A5.72,5.72,0,0,1,34,209.15" style="fill:none;stroke:#ff8c08;stroke-miterlimit:10;fill-rule:evenodd"/><line x1="78.36" y1="226.63" x2="56.8" y2="228.56" style="fill:none;stroke:#828eaa;stroke-miterlimit:10"/><line x1="75.16" y1="230.37" x2="60.67" y2="231.66" style="fill:none;stroke:#828eaa;stroke-miterlimit:10"/><path d="M82.93,235.89c-1.15,1.34-4.68,2.07-6.23,2.71,0,0-8.13,1.6-10.72,1.53-4.56-.13-16.48-.63-17.41-11.25-.4-4.61,5-8.56,8-10.32C67,212.52,96.9,219.63,82.93,235.89Z" style="fill:none;stroke:#828eaa;stroke-miterlimit:10"/><path d="M35.15,199.44c-7.69.89-11,1.81-20.12,1" style="fill:none;stroke:#828eaa;stroke-miterlimit:10;fill-rule:evenodd"/><path d="M35.73,195.36c-3.42.2-14.95,2.24-18.36,1.85" style="fill:none;stroke:#828eaa;stroke-miterlimit:10;fill-rule:evenodd"/><path d="M95.61,192.51c7.68-.89,11-1.82,20.12-1" style="fill:none;stroke:#828eaa;stroke-miterlimit:10;fill-rule:evenodd"/><path d="M95,196.58c3.43-.2,15-2.23,18.36-1.85" style="fill:none;stroke:#828eaa;stroke-miterlimit:10;fill-rule:evenodd"/><path d="M101,252.13c3.46-.2,12.13.44,18.36.44" style="fill:none;stroke:#828eaa;stroke-miterlimit:10;fill-rule:evenodd"/><path d="M101,256.86c3.46-.2,12.13.45,18.36.45" style="fill:none;stroke:#828eaa;stroke-miterlimit:10;fill-rule:evenodd"/><path d="M77.4,282c3.46-.2,12.14.45,18.36.45" style="fill:none;stroke:#828eaa;stroke-miterlimit:10;fill-rule:evenodd"/><path d="M25.75,259.45c2.29-.19,12.7.17,18.37.05" style="fill:none;stroke:#828eaa;stroke-miterlimit:10;fill-rule:evenodd"/><path d="M25.85,264c2.28-.18,12.7.17,18.37,0" style="fill:none;stroke:#828eaa;stroke-miterlimit:10;fill-rule:evenodd"/><path d="M95.61,184.46c7.68-.89,11-1.81,20.12-1" style="fill:none;stroke:#828eaa;stroke-miterlimit:10;fill-rule:evenodd"/><path d="M95,188.54c3.43-.2,15-2.24,18.36-1.85" style="fill:none;stroke:#828eaa;stroke-miterlimit:10;fill-rule:evenodd"/><path d="M77.4,291.65c3.46-.2,12.14.45,18.36.45" style="fill:none;stroke:#828eaa;stroke-miterlimit:10;fill-rule:evenodd"/><path d="M77.4,286.63c3.46-.2,9.84.45,16.06.45" style="fill:none;stroke:#828eaa;stroke-miterlimit:10;fill-rule:evenodd"/><path d="M53.92,159c3.43-.52,12.13-.68,18.33-1.25" style="fill:none;stroke:#828eaa;stroke-miterlimit:10;fill-rule:evenodd"/><path d="M54.81,168.62c3.43-.52,12.13-.68,18.32-1.25" style="fill:none;stroke:#828eaa;stroke-miterlimit:10;fill-rule:evenodd"/><path d="M54.35,163.62c3.43-.52,9.84-.47,16-1.05" style="fill:none;stroke:#828eaa;stroke-miterlimit:10;fill-rule:evenodd"/><path d="M752.59,105.54c7.33-20,47.92-38,69.48-42.66" style="fill:none;stroke:#ff8c08;stroke-miterlimit:10;fill-rule:evenodd"/><path d="M556.14,76.67c19.9-.18,22.53-.53,28.81-.53,15.19,0,29.29-.1,40.93,9.67-7,4.33-9.41,1.76-19.89,2.47,6,.31,9.7,2.21,20.56-1.6-2.91-9.36-5-11.84-13.25-19.35" style="fill:none;stroke:#ff8c08;stroke-miterlimit:10;fill-rule:evenodd"/><path d="M394.26,125.48C462,81.74,522,79.59,540.25,77.54" style="fill:none;stroke:#ff8c08;stroke-miterlimit:10;fill-rule:evenodd"/><polygon points="165.91 146.09 166.49 179.65 212.55 178.97 211.97 144.2 165.91 146.09" style="fill:none;stroke:#828eaa;stroke-miterlimit:10"/><polygon points="240.82 142.41 241.4 179.12 287.46 180.02 286.88 138.94 240.82 142.41" style="fill:none;stroke:#828eaa;stroke-miterlimit:10"/><polygon points="287.46 245.46 286.88 208.75 240.82 207.85 241.4 242.62 287.46 245.46" style="fill:none;stroke:#828eaa;stroke-miterlimit:10"/><polygon points="212.55 242.84 211.97 207.7 165.91 208.38 166.49 241.57 212.55 242.84" style="fill:none;stroke:#828eaa;stroke-miterlimit:10"/><polygon points="287.22 320.9 287.05 279.96 240.82 277.55 241.4 315.48 287.22 320.9" style="fill:none;stroke:#828eaa;stroke-miterlimit:10"/><polygon points="212.55 311.27 211.97 275.23 165.91 273.09 166.49 306.28 212.55 311.27" style="fill:none;stroke:#828eaa;stroke-miterlimit:10"/><path d="M179.48,164.32v7.08l19.91-.78V163.8S182.45,164.32,179.48,164.32Z" style="fill:none;stroke:#828eaa;stroke-miterlimit:10;fill-rule:evenodd"/><path d="M189.26,296.93V304l19.91,2.37V298S192.23,296.93,189.26,296.93Z" style="fill:none;stroke:#828eaa;stroke-miterlimit:10;fill-rule:evenodd"/><line x1="177.13" y1="153.04" x2="200.7" y2="151.99" style="fill:none;stroke:#828eaa;stroke-miterlimit:10"/><line x1="176.87" y1="157.24" x2="199.66" y2="156.45" style="fill:none;stroke:#828eaa;stroke-miterlimit:10"/><line x1="178.62" y1="283.85" x2="202.21" y2="283.96" style="fill:none;stroke:#828eaa;stroke-miterlimit:10"/><line x1="178.15" y1="288.03" x2="200.95" y2="288.36" style="fill:none;stroke:#828eaa;stroke-miterlimit:10"/><line x1="189.44" y1="219.95" x2="204.89" y2="219.43" style="fill:none;stroke:#828eaa;stroke-miterlimit:10"/><line x1="189.18" y1="224.15" x2="203.84" y2="223.89" style="fill:none;stroke:#828eaa;stroke-miterlimit:10"/><path d="M254.39,162.74v7.08L274.3,169v-6.82S257.36,162.74,254.39,162.74Z" style="fill:none;stroke:#828eaa;stroke-miterlimit:10;fill-rule:evenodd"/><line x1="252.04" y1="151.46" x2="275.62" y2="150.41" style="fill:none;stroke:#828eaa;stroke-miterlimit:10"/><line x1="251.78" y1="155.66" x2="274.57" y2="154.87" style="fill:none;stroke:#828eaa;stroke-miterlimit:10"/><path d="M195.2,167.2c4.66-2.72,14.34-6.86,22.26-7.61,8.38-.78,19.08.15,20.68,2.48a6.23,6.23,0,0,1-5.14,1.11c1.07.36,2.35,1.22,5.22-.92a8.53,8.53,0,0,0-1.38-4.88" style="fill:none;stroke:#ff8c08;stroke-miterlimit:10;fill-rule:evenodd"/><path d="M205,299.81c4.67-2.72,14.35-6.86,22.27-7.61,8.38-.78,19.08.15,20.68,2.48a6.23,6.23,0,0,1-5.14,1.11c1.07.36,2.34,1.21,5.22-.92a8.51,8.51,0,0,0-1.38-4.88" style="fill:none;stroke:#ff8c08;stroke-miterlimit:10;fill-rule:evenodd"/><polyline points="281.81 226.95 279.36 229.93 295.25 230.71 293.42 165.89 271.68 165.89" style="fill:none;stroke:#ff8c08;stroke-miterlimit:10;fill-rule:evenodd"/><line x1="282.35" y1="233.2" x2="278.49" y2="230.51" style="fill:none;stroke:#ff8c08;stroke-miterlimit:10"/><line x1="249.42" y1="159.07" x2="200.61" y2="214.26" style="fill:none;stroke:#ff8c08;stroke-miterlimit:10"/><line x1="191.34" y1="227" x2="190.92" y2="279.95" style="fill:none;stroke:#ff8c08;stroke-miterlimit:10"/><polyline points="201.39 209.37 200.7 214.18 205.85 215.14" style="fill:none;stroke:#ff8c08;stroke-miterlimit:10;fill-rule:evenodd"/><polyline points="194.93 275.14 191.27 280.39 186.64 275.4" style="fill:none;stroke:#ff8c08;stroke-miterlimit:10"/><path d="M748.57,106.49a13.58,13.58,0,0,0-5.28.57,4.64,4.64,0,0,0-3.15,3.94,4.57,4.57,0,0,0,2.37,3.78,12.77,12.77,0,0,0,4.43,1.41c3.09.57,6.72.9,9-1.3a5.13,5.13,0,0,0-6.56-7.84" style="fill:none;stroke:#ff8c08;stroke-miterlimit:10;fill-rule:evenodd"/><path d="M409.41,143.86c-.27,13.94.51,51.1.54,75.11a7.89,7.89,0,0,1-8.26,7.9c-20.21-1-.13,1.36-31.19-.82a7.89,7.89,0,0,1-7.33-7.93c0-5.1-.16-3.49-.25-19.54-.12-20.11-1.61-28.41-1.12-54.5a9.5,9.5,0,0,1,8.6-9.28c19.45-1.82,9.41-2,30.86-2.75a7.9,7.9,0,0,1,8.15,7.89Z" style="fill:none;stroke:#828eaa;stroke-miterlimit:10"/><path d="M367.32,152.46s-.17,17.82-.31,25.59l38-1V151.51Z" style="fill:none;stroke:#828eaa;stroke-miterlimit:10"/><line x1="367.32" y1="152.46" x2="405.04" y2="177.1" style="fill:none;stroke:#828eaa;stroke-miterlimit:10"/><line x1="405.04" y1="151.51" x2="368.59" y2="176.47" style="fill:none;stroke:#828eaa;stroke-miterlimit:10"/><polygon points="382.73 139.49 366.11 140.48 366.05 147.21 383.04 147.01 382.73 139.49" style="fill:none;stroke:#828eaa;stroke-miterlimit:10;fill-rule:evenodd"/><line x1="382.73" y1="139.49" x2="366.05" y2="147.21" style="fill:none;stroke:#828eaa;stroke-miterlimit:10"/><line x1="366.11" y1="140.48" x2="382.67" y2="145.92" style="fill:none;stroke:#828eaa;stroke-miterlimit:10"/><line x1="403.55" y1="137.96" x2="397.46" y2="138.1" style="fill:none;stroke:#828eaa;stroke-miterlimit:10"/><line x1="403.55" y1="141.11" x2="397.46" y2="141.26" style="fill:none;stroke:#828eaa;stroke-miterlimit:10"/><line x1="403.55" y1="144.27" x2="397.46" y2="144.42" style="fill:none;stroke:#828eaa;stroke-miterlimit:10"/><line x1="398.68" y1="183.79" x2="376.81" y2="184.47" style="fill:none;stroke:#828eaa;stroke-miterlimit:10"/><line x1="368.69" y1="188.99" x2="406.21" y2="188.62" style="fill:none;stroke:#828eaa;stroke-miterlimit:10"/><line x1="399.89" y1="192.54" x2="374.57" y2="193.21" style="fill:none;stroke:#828eaa;stroke-miterlimit:10"/><polygon points="388.51 200.56 389.04 208.96 405.76 208.96 405.24 200.56 388.51 200.56" style="fill:none;stroke:#828eaa;stroke-miterlimit:10"/><ellipse cx="386.89" cy="221.36" rx="2.44" ry="2.45" style="fill:none;stroke:#828eaa;stroke-miterlimit:10"/><line x1="363.49" y1="214.53" x2="409.24" y2="215.23" style="fill:none;stroke:#828eaa;stroke-miterlimit:10"/><path d="M409.41,265.39c-.27,13.94.51,49.52.54,73.53a7.89,7.89,0,0,1-8.26,7.9c-20.21-1-.13-.22-31.19-2.4a7.89,7.89,0,0,1-7.33-7.93c0-5.1-.16-3.49-.25-19.54-.12-20.11-1.61-28.41-1.12-54.5a9.5,9.5,0,0,1,8.6-9.28c19.45-1.81,9.41,1.15,30.86.41a7.89,7.89,0,0,1,8.15,7.89Z" style="fill:none;stroke:#828eaa;stroke-miterlimit:10"/><polygon points="382.73 257.86 366.11 258.85 366.05 265.58 383.04 265.38 382.73 257.86" style="fill:none;stroke:#828eaa;stroke-miterlimit:10;fill-rule:evenodd"/><line x1="382.73" y1="257.86" x2="366.05" y2="265.58" style="fill:none;stroke:#828eaa;stroke-miterlimit:10"/><line x1="366.11" y1="258.85" x2="382.67" y2="264.29" style="fill:none;stroke:#828eaa;stroke-miterlimit:10"/><line x1="403.55" y1="257.91" x2="397.46" y2="258.05" style="fill:none;stroke:#828eaa;stroke-miterlimit:10"/><line x1="403.55" y1="261.06" x2="397.46" y2="261.21" style="fill:none;stroke:#828eaa;stroke-miterlimit:10"/><line x1="403.55" y1="264.22" x2="397.46" y2="264.37" style="fill:none;stroke:#828eaa;stroke-miterlimit:10"/><polygon points="368.56 274.32 369.09 282.71 399.99 284.29 399.47 275.9 368.56 274.32" style="fill:none;stroke:#828eaa;stroke-miterlimit:10"/><polygon points="369.09 286.92 369.61 295.31 400.52 296.88 399.99 288.5 369.09 286.92" style="fill:none;stroke:#828eaa;stroke-miterlimit:10"/><polygon points="369.61 299.77 370.14 308.17 401.04 309.74 400.52 301.35 369.61 299.77" style="fill:none;stroke:#828eaa;stroke-miterlimit:10"/><ellipse cx="386.89" cy="339.73" rx="2.44" ry="2.45" style="fill:none;stroke:#828eaa;stroke-miterlimit:10"/><line x1="363.49" y1="332.9" x2="409.24" y2="336.76" style="fill:none;stroke:#828eaa;stroke-miterlimit:10"/><path d="M491.72,139.14c-.28,13.92,1.76,56.27,2.06,81.34a7.88,7.88,0,0,1-8.25,8c-20.44-1-1.48,1.36-32.75-.82a7.89,7.89,0,0,1-7.33-7.89c0-8.14-.33-10.4-.23-25.9.12-18.11-1.63-28.35-1.08-55.94a7.9,7.9,0,0,1,7.18-7.71c21.31-1.93,10.31-2.12,32.25-2.87a7.89,7.89,0,0,1,8.15,7.89Z" style="fill:none;stroke:#828eaa;stroke-miterlimit:10"/><path d="M449.63,149.31s-.18,17.83-.31,25.6l38-.95v-25.6Z" style="fill:none;stroke:#828eaa;stroke-miterlimit:10"/><line x1="449.63" y1="149.31" x2="487.35" y2="173.96" style="fill:none;stroke:#828eaa;stroke-miterlimit:10"/><line x1="487.35" y1="148.36" x2="450.89" y2="173.33" style="fill:none;stroke:#828eaa;stroke-miterlimit:10"/><polygon points="465.04 134.76 448.42 135.75 448.35 142.49 465.34 142.29 465.04 134.76" style="fill:none;stroke:#828eaa;stroke-miterlimit:10;fill-rule:evenodd"/><line x1="465.04" y1="134.76" x2="448.35" y2="142.49" style="fill:none;stroke:#828eaa;stroke-miterlimit:10"/><line x1="448.42" y1="135.75" x2="464.98" y2="141.2" style="fill:none;stroke:#828eaa;stroke-miterlimit:10"/><line x1="485.86" y1="133.23" x2="479.76" y2="133.38" style="fill:none;stroke:#828eaa;stroke-miterlimit:10"/><line x1="485.86" y1="136.39" x2="479.76" y2="136.54" style="fill:none;stroke:#828eaa;stroke-miterlimit:10"/><line x1="485.86" y1="139.55" x2="479.76" y2="139.69" style="fill:none;stroke:#828eaa;stroke-miterlimit:10"/><line x1="480.99" y1="180.65" x2="451.24" y2="181.32" style="fill:none;stroke:#828eaa;stroke-miterlimit:10"/><line x1="488.51" y1="185.47" x2="450.99" y2="185.84" style="fill:none;stroke:#828eaa;stroke-miterlimit:10"/><line x1="482.19" y1="189.39" x2="450.57" y2="190.06" style="fill:none;stroke:#828eaa;stroke-miterlimit:10"/><line x1="480.99" y1="193.77" x2="451.24" y2="194.44" style="fill:none;stroke:#828eaa;stroke-miterlimit:10"/><line x1="450.99" y1="198.96" x2="488.51" y2="198.59" style="fill:none;stroke:#828eaa;stroke-miterlimit:10"/><line x1="482.19" y1="202.51" x2="450.57" y2="203.19" style="fill:none;stroke:#828eaa;stroke-miterlimit:10"/><ellipse cx="468.33" cy="222.75" rx="2.44" ry="2.45" style="fill:none;stroke:#828eaa;stroke-miterlimit:10"/><line x1="444.93" y1="215.92" x2="490.68" y2="216.62" style="fill:none;stroke:#828eaa;stroke-miterlimit:10"/><line x1="396.36" y1="204.21" x2="439.5" y2="204.21" style="fill:none;stroke:#ff8c08;stroke-miterlimit:10"/><polyline points="434.43 200.36 439.67 203.86 433.73 208.23" style="fill:none;stroke:#ff8c08;stroke-miterlimit:10"/><path d="M515.1,408.66s3.68,41.67.15,58.54c0,0-3.21,25.21-2.27,31.44s.36,27.87-4.77,39.21c0,0-12,108.56-8.33,131.42,0,0-6.95,6.22-10.61,1.48s-16.33-73-17.34-99.45-8.68-90.08-10.31-96.29c0,0-1.25,30.53-3.81,36.2s-23.52,53.32-22,74.17c0,0-6.54,63.57-4.88,70.47,0,0-10,3.62-12.18,2.31s-20.9-96.56-.93-156.56c0,0,9.64-23.64,4.46-33.72,3.22,6.26-6.64-40.13,5.59-69.86l-8.42,10.41Z" style="fill:#dbe3f3"/><path d="M486.33,662.7S479.63,680.57,492,681s44-5.12,47.21-8c0,0,5.49-8.21-3.27-8.49s-35-1-40.65-5.69C495.24,658.82,489.93,663.8,486.33,662.7Z" style="fill:#dbe3f3"/><path d="M492,681c-5.3-.17-11.67-5.56-5.62-18.32,0,0-16.79-72.73-16-110.61,0,0-2.36-22.89-2.36-29.2s-5.35-43.18-5.35-43.18-18.28-23.11-8.83-53.1c1.91-6.06,26.78,1.58,26.78,1.58s8.67,36.3,3.94,48.14,1.58,38.67,3.15,45,0,31.57,0,31.57-3.95,115.62,4.17,120.94c0,0,11.35,5.94,29,2.34,0,0,18.12-3.07,19.72-6.23a4.77,4.77,0,0,1-3.13,4S515.2,681.75,492,681Z" style="fill:#bec9dd"/><path d="M429.67,648s15.46,1.85,31.83,3.42c0,0,4.95,3.13-1.09,6.45s-12.68,3.88-18.16,5c-7.56,1.5-12.32,5.5-24.75,2.89,0,0-2.28-2.89-.4-12.87C417.84,648.92,424.57,652.68,429.67,648Z" style="fill:#dbe3f3"/><path d="M453,429c1.58,2.37,1.58,30.78-3.93,44.19s-15.76,32.36-19.7,51.3-7.87,119.95-6.3,124.68l-6,3.71s-22.39-82.62,4.39-164.69c0,0,3.94-10.26,2.36-15s-5.51-38.66-2.36-48.92Z" style="fill:#bec9dd"/><polyline points="598.5 203.88 605.88 194.68 601.86 191.35 593.59 200.71" style="fill:#8a9cb7;fill-rule:evenodd"/><path d="M599,231.27s5.6-7.59,8.31-13.59c0,0,6.84-13.53-8-17.38,0,0-4.46-2.67-10.12,3.44,0,0-9.21-.44-7.71,11.25.93,7.3.39,10.3.39,10.3l.17,4.42Z" style="fill:#dbe3f3;fill-rule:evenodd"/><path d="M588.14,230.27l10.83,1s5.6-7.59,8.31-13.59c0,0,6.84-13.53-8-17.38,0,0,5.34,4.95,1.21,12.48Z" style="fill:#bec9dd;fill-rule:evenodd"/><path d="M588.18,206.15l-17.35,20.3,6,4.19,16.18-20.73S594,203,588.18,206.15Z" style="fill:#8a9cb7;fill-rule:evenodd"/><path d="M469.12,240.58q4.44-.81,9.31-9.75t21.41-52.25l27.3,5.95,3.2,15.28Q532.86,211.55,532,216c-.68,3.37-1.1,7.05-4.84,9-1.17.59-4.45,1.21-6.13,1.78-4.7,1.58-8,1.25-13.05-1l1.69,13.85c-4.28-1.61-11.2,2.62-17.66,1.82A152,152,0,0,0,469.12,240.58Z" style="fill:#dbe3f3"/><path d="M598.47,233.25a207.11,207.11,0,0,1-4.27,24.83C590.75,273,583.71,289,582.84,291c-2.41,5.41-7.21,13.42-14.81,15s-5.29,1.25-16.07-.12S525.81,287.54,525.3,295c-.67,9.82-7,20.25-7.89,28.46-.35,3.22.49,6.58.3,7.87-.59,4.06-.08,7.67-.88,12.46s-2.86,10.55-3.21,12.87c-2.26,14.73,6.64,65.14,6.25,66.59-.64,2.36-13.84,2.54-31.08,6.5s-17.28-6-25.15-2-16.12-1.88-23.09.17-10.31-2.42-15.92-1-5.8-.05-7.28-2.51c-.77-1.27,2.56-23.1,3.15-31.6.56-7.94,2.38-19.68,3.48-32.78.28-3.33,2.43-9.62,2-16.91-.08-1.39.1-7.24-.76-9.59-.29-.79-1-.76-2.24.08q-25.64,2-26.25-14.14c-.62-16.18,36.51-76.91,50.37-82s24-6.67,34.11-6.48c19.94.36,43,4.93,53.85,11.12,4.88,2.79,9.2,10.67,13.31,15.94,1.12,1.43,5.27,2.8,8.31,4.43a62.82,62.82,0,0,1,6.84,4.48c1.24.74,1.29-2,4.43-9.67S581.65,228.64,582.6,228s4.42,0,9.47,1.61S598.37,230.64,598.47,233.25Z" style="fill:#1255cc;fill-rule:evenodd"/><path d="M598.47,233.25a207.11,207.11,0,0,1-4.27,24.83C590.75,273,583.71,289,582.84,291c-2.41,5.41-7.21,13.42-14.81,15a47.45,47.45,0,0,1-4.76,1,52.74,52.74,0,0,1-13.92-1.83,30.93,30.93,0,0,1-7.38-3.48,135.87,135.87,0,0,0,14.68,2.9c5.32.47,8-.77,8.55-1.26,3.51-3.2,6.82-6.15,8.34-8.34,6-8.57,9-18.6,11-24.91,1.29-4.13,1.71-7.9,2.66-11.75A132.57,132.57,0,0,1,592,243.86c.74-2,0-5,.36-7.34a23.21,23.21,0,0,0-.26-6.87C597.11,231.31,598.37,230.64,598.47,233.25Z" style="fill:#134aad;fill-rule:evenodd"/><polygon points="602.63 192.17 605.63 188.37 608.84 189.82 605.13 194.11 602.63 192.17" style="fill:#ff8c08;fill-rule:evenodd"/><path d="M526.78,188.49c2.61-7.47-1.27-19.43-1.27-19.43-5.29-14.8-33.74-23.71-49.64-6.52S477.38,202,480.8,209s-2.37,21.88-2.37,21.88" style="fill:#dbe3f3"/><path d="M512.29,205.07c-.3-7.7-5-17.32-4.55-20.94.17-1.33,2.19-.08,3.74-.14,2.59-.1,4.28,20.2,9.47,26.43,1.66,2,4.33,0,10.11-6.07,2.19,11.17,2.06,18.12-2.45,20.94s-10.47,3.84-17.86,3.08a3.5,3.5,0,0,1-2.78-1.32c-.62-.81-.53-5.23-1.3-7.78C511.2,215,512.56,212.1,512.29,205.07Z" style="fill:#143b82;fill-rule:evenodd"/><polygon points="524.35 187.87 534.25 197.38 527.68 202.28 524.35 187.87" style="fill:#dbe3f3;fill-rule:evenodd"/><path d="M478.86,428s-7.05-32.6-8.79-48.89-1.4-24.33,0-31.68S475.73,314,474,307.45s-4.72-32.95-4.83-43.45,6.8-32.93,12.08-32.93c0,0-24.78-.24-36.07,7.47,0,0-11.33,6.87-30.66,39.17,0,0-19.15,32-17.75,41.84,0,0-2,18.81,27.46,13.21,0,0,1.45.84,1.6,4.18a130.93,130.93,0,0,1-1.06,18.92c-.94,6.53-2.25,18.92-2.25,18.92s-1.39,13-2.08,19.57S418.47,411,418.47,411s-6.44,20.7,6.16,16c0,0,4.7-1.19,7.13.61s8.79.35,8.79.35,5.35-1.39,9.91.43a17.5,17.5,0,0,0,11.49.13c1.69-.73,5.51-3.25,10.79.23,0,0,5.3,2.86,8.39,2Z" style="fill:#134aad"/><path d="M425.38,333.42l-.1-2.54a32.87,32.87,0,0,0,3.52-7.65c2.32-10.26,3.39-16.21,5.09-21.18,3.39-9.85,9.14-17.87,9.35-20.23q.22-2.37-8.38,3.82c-3.58-1.73-6.09-2.05-7.54-1-2.16,1.61.23,10.68-1.6,15.5s-4.57,3.58-7.11,7.4-3,8.16-3.73,8.91q-.72.77-15.81,4.92,0,7.47,2.07,9.18c3.53,2.93,10.23,3.4,13.45,3.27,1.76-.06,3.25.1,4.49.08s2.42-.07,3.74-.15a2.72,2.72,0,0,1,1.36-1Q424.7,332.68,425.38,333.42Z" style="fill:#06417c;fill-rule:evenodd"/><path d="M499.24,660.75a24.71,24.71,0,0,1-12.91,2L484.4,654s9.1,1.73,14.84-3.12Z" style="fill:#134aad"/><path d="M430.68,648.26l.53-9.69s-7,6.95-16,5.53l1.88,8.76S427.76,653.48,430.68,648.26Z" style="fill:#134aad"/><path d="M423.7,652.41s.6,9.06,4.21,9.16,17.22-1.21,17.22-1.21,17.33-6.94,15.28-2.49a103.16,103.16,0,0,1-16.93,4.74c-1.23.23-7.07,1.93-9.11,2.5s-12.88,2.19-17.46.48c0,0-1.53-7.35.19-12.73A35.61,35.61,0,0,0,423.7,652.41Z" style="fill:#bec9dd"/><path d="M423.7,652.41s-1.14-7.51-1.23-8.83c0,0-4.63,1.28-7.45.21l2.08,9.07S419,653.28,423.7,652.41Z" style="fill:#0b3c84"/><path d="M487.85,654.24s.75,8.09.82,8.6l-2.34-.14L484.4,654Z" style="fill:#0b3c84"/><polygon points="383.09 200.36 383.09 209.1 365.98 209.45 365.98 200.88 383.09 200.36" style="fill:none;stroke:#828eaa;stroke-miterlimit:10"/><polyline points="357.25 306.2 344.13 305.01 344.13 204.91 371.56 204.91" style="fill:none;stroke:#ff8c08;stroke-miterlimit:10;fill-rule:evenodd"/><polyline points="165.86 213.39 185.5 212.87 185.24 233.86 166.91 234.12" style="fill:none;stroke:#828eaa;stroke-miterlimit:10"/><line x1="286.88" y1="208.75" x2="241.4" y2="242.62" style="fill:none;stroke:#828eaa;stroke-miterlimit:10"/><line x1="240.82" y1="207.85" x2="287.46" y2="245.46" style="fill:none;stroke:#828eaa;stroke-miterlimit:10"/><line x1="185.5" y1="212.87" x2="166.12" y2="225.46" style="fill:none;stroke:#828eaa;stroke-miterlimit:10"/><line x1="185.24" y1="233.86" x2="166.38" y2="221.79" style="fill:none;stroke:#828eaa;stroke-miterlimit:10"/><polygon points="250.72 282.8 280.59 283.32 281.11 291.68 250.86 289.75 250.72 282.8" style="fill:none;stroke:#828eaa;stroke-miterlimit:10;fill-rule:evenodd"/><polygon points="251.38 293.43 280.72 295.92 280.85 303.93 251.51 301.69 251.38 293.43" style="fill:none;stroke:#828eaa;stroke-miterlimit:10;fill-rule:evenodd"/><polygon points="251.12 304.84 280.45 307.34 280.59 315.34 251.25 313.11 251.12 304.84" style="fill:none;stroke:#828eaa;stroke-miterlimit:10;fill-rule:evenodd"/><polygon points="1128.7 81.43 1131.84 237.83 925.11 234.96 922.3 94.04 949.14 92.81 1128.7 81.43" style="fill:none;stroke:#828eaa;stroke-miterlimit:10;fill-rule:evenodd"/><path d="M949.14,92.81s-1.34,32-.65,41.82.88,33.77.88,33.77l1.4,52.48-.88,13.3" style="fill:none;stroke:#828eaa;stroke-miterlimit:10;fill-rule:evenodd"/><polygon points="946.53 96.83 925.47 98.08 925.39 106.61 946.45 106.97 946.53 96.83" style="fill:none;stroke:#828eaa;stroke-miterlimit:10;fill-rule:evenodd"/><line x1="946.53" y1="96.82" x2="925.39" y2="106.61" style="fill:none;stroke:#828eaa;stroke-miterlimit:10"/><line x1="925.47" y1="98.08" x2="946.45" y2="106.97" style="fill:none;stroke:#828eaa;stroke-miterlimit:10"/><path d="M926,121.33h15.19" style="fill:none;stroke:#828eaa;stroke-miterlimit:10;fill-rule:evenodd"/><line x1="942.21" y1="131.31" x2="927.02" y2="130.78" style="fill:none;stroke:#828eaa;stroke-miterlimit:10"/><line x1="925.97" y1="137.6" x2="941.16" y2="137.6" style="fill:none;stroke:#828eaa;stroke-miterlimit:10"/><line x1="940.64" y1="146" x2="926.49" y2="145.48" style="fill:none;stroke:#828eaa;stroke-miterlimit:10"/><polygon points="1179.01 256.38 1180.57 412.78 978.57 390.96 975.76 253.21 1002.59 251.98 1179.01 256.38" style="fill:none;stroke:#828eaa;stroke-miterlimit:10;fill-rule:evenodd"/><path d="M1005.74,253.55s-1.34,41.49-.64,51.29.88,33.77.88,33.77l1.4,46.17-.88,7" style="fill:none;stroke:#828eaa;stroke-miterlimit:10;fill-rule:evenodd"/><polygon points="999.98 257.57 978.93 258.82 978.85 267.35 999.9 267.71 999.98 257.57" style="fill:none;stroke:#828eaa;stroke-miterlimit:10;fill-rule:evenodd"/><line x1="999.98" y1="257.57" x2="978.85" y2="267.35" style="fill:none;stroke:#828eaa;stroke-miterlimit:10"/><line x1="978.93" y1="258.82" x2="999.9" y2="267.72" style="fill:none;stroke:#828eaa;stroke-miterlimit:10"/><path d="M981,280.5h15.19" style="fill:none;stroke:#828eaa;stroke-miterlimit:10;fill-rule:evenodd"/><line x1="997.24" y1="290.47" x2="982.05" y2="289.94" style="fill:none;stroke:#828eaa;stroke-miterlimit:10"/><line x1="981" y1="296.77" x2="996.19" y2="296.77" style="fill:none;stroke:#828eaa;stroke-miterlimit:10"/><line x1="995.67" y1="305.16" x2="981.52" y2="304.64" style="fill:none;stroke:#828eaa;stroke-miterlimit:10"/><line x1="925.97" y1="152.82" x2="942.73" y2="152.82" style="fill:none;stroke:#828eaa;stroke-miterlimit:10"/><polygon points="961.07 103.69 961.15 158.39 1027.88 157.36 1027.27 100.68 961.07 103.69" style="fill:none;stroke:#828eaa;stroke-miterlimit:10;fill-rule:evenodd"/><polygon points="1040 98.95 1040.08 156.81 1106.8 155.78 1106.2 95.95 1040 98.95" style="fill:none;stroke:#828eaa;stroke-miterlimit:10;fill-rule:evenodd"/><polygon points="961.07 170.52 961.15 223.65 1108.12 223.45 1107.07 165.72 961.07 170.52" style="fill:none;stroke:#828eaa;stroke-miterlimit:10;fill-rule:evenodd"/><path d="M1102.81,128.51c52.69,29.14,52.68,81.2,55.21,92.48,1.33,5.92,2.52,12.65-1,17.63-3.44-2.39-4.39-4.5-5-8.64.09,2.41-.14,5,6.28,9.13,3.61-1.49,4.48-3.08,7.17-6.62" style="fill:none;stroke:#ff8c08;stroke-miterlimit:10;fill-rule:evenodd"/><polygon points="1012.74 263.03 1012.8 306.64 1059.44 309.08 1059.02 264.09 1012.74 263.03" style="fill:none;stroke:#828eaa;stroke-miterlimit:10;fill-rule:evenodd"/><polygon points="1067.22 264.79 1067.2 309.58 1113.84 310.08 1111.93 265.85 1067.22 264.79" style="fill:none;stroke:#828eaa;stroke-miterlimit:10;fill-rule:evenodd"/><polygon points="1123.1 266.55 1123.78 310.11 1170.43 310.61 1169.9 267.6 1123.1 266.55" style="fill:none;stroke:#828eaa;stroke-miterlimit:10;fill-rule:evenodd"/><polyline points="1016.93 321.97 1017.98 379.2 1158.38 392.88" style="fill:none;stroke:#828eaa;stroke-miterlimit:10;fill-rule:evenodd"/><path d="M1025.31,355.06s6.29,10.5,22,8.4S1074.56,332,1084,326.72s31.43-3.15,37.71,7.35,24.1,11.55,34.58,8.4" style="fill:none;stroke:#828eaa;stroke-miterlimit:10;fill-rule:evenodd"/><polyline points="1145.8 336.17 1157.33 341.94 1148.95 351.91" style="fill:none;stroke:#828eaa;stroke-miterlimit:10;fill-rule:evenodd"/><path d="M1034.78,271.59s-13.62,2.11-13.62,13.13,12.57,12.07,12.57,12.07,14.15.52,14.67-12.6S1034.78,271.59,1034.78,271.59Z" style="fill:none;stroke:#828eaa;stroke-miterlimit:10;fill-rule:evenodd"/><polyline points="1034.78 273.17 1034.26 284.19 1045.26 276.85" style="fill:none;stroke:#828eaa;stroke-miterlimit:10;fill-rule:evenodd"/><line x1="1034.43" y1="284.89" x2="1038.45" y2="295.21" style="fill:none;stroke:#828eaa;stroke-miterlimit:10"/><line x1="1075.64" y1="274.75" x2="1102.36" y2="274.75" style="fill:none;stroke:#828eaa;stroke-miterlimit:10"/><line x1="1075.64" y1="282.1" x2="1097.65" y2="281.05" style="fill:none;stroke:#828eaa;stroke-miterlimit:10"/><line x1="1076.69" y1="288.4" x2="1103.41" y2="287.88" style="fill:none;stroke:#828eaa;stroke-miterlimit:10"/><line x1="1076.69" y1="294.17" x2="1096.62" y2="294.7" style="fill:none;stroke:#828eaa;stroke-miterlimit:10"/><line x1="980.83" y1="133.5" x2="1008.07" y2="132.45" style="fill:none;stroke:#828eaa;stroke-miterlimit:10"/><line x1="1060.12" y1="131.75" x2="1087.72" y2="130.53" style="fill:none;stroke:#828eaa;stroke-miterlimit:10"/><line x1="961.09" y1="175.86" x2="1106.72" y2="172.71" style="fill:none;stroke:#828eaa;stroke-miterlimit:10"/><path d="M967.38,186.37c1.57,0,27.75-.53,27.75-.53" style="fill:none;stroke:#828eaa;stroke-miterlimit:10"/><line x1="1015.58" y1="185.32" x2="1047.51" y2="184.79" style="fill:none;stroke:#828eaa;stroke-miterlimit:10"/><line x1="1066.92" y1="183.74" x2="1094.66" y2="182.69" style="fill:none;stroke:#828eaa;stroke-miterlimit:10"/><path d="M967.38,195.84c4.16,0-4.91,0,27.75-.53" style="fill:none;stroke:#828eaa;stroke-miterlimit:10"/><line x1="1015.58" y1="194.79" x2="1047.51" y2="194.26" style="fill:none;stroke:#828eaa;stroke-miterlimit:10"/><line x1="1066.92" y1="193.21" x2="1094.66" y2="192.16" style="fill:none;stroke:#828eaa;stroke-miterlimit:10"/><path d="M967.38,205.31c4.16,0-4.91,0,27.75-.53" style="fill:none;stroke:#828eaa;stroke-miterlimit:10"/><line x1="1015.58" y1="204.26" x2="1047.51" y2="203.73" style="fill:none;stroke:#828eaa;stroke-miterlimit:10"/><line x1="1066.92" y1="202.68" x2="1094.66" y2="201.63" style="fill:none;stroke:#828eaa;stroke-miterlimit:10"/><path d="M967.38,214.78c4.16,0-4.91,0,27.75-.53" style="fill:none;stroke:#828eaa;stroke-miterlimit:10"/><line x1="1015.58" y1="213.73" x2="1047.51" y2="213.2" style="fill:none;stroke:#828eaa;stroke-miterlimit:10"/><line x1="1066.92" y1="212.15" x2="1094.66" y2="211.1" style="fill:none;stroke:#828eaa;stroke-miterlimit:10"/><ellipse cx="993.05" cy="122.03" rx="5.02" ry="5.03" style="fill:none;stroke:#828eaa;stroke-miterlimit:10"/><ellipse cx="1073.42" cy="120.23" rx="5.02" ry="5.03" style="fill:none;stroke:#828eaa;stroke-miterlimit:10"/><polyline points="1132.22 304.63 1131.17 274.88 1140.6 274.88 1140.98 285.79 1141.65 304.98" style="fill:none;stroke:#828eaa;stroke-miterlimit:10"/><polyline points="1145.84 305.68 1145.14 285.38 1153.87 285.38 1154.04 305.68" style="fill:none;stroke:#828eaa;stroke-miterlimit:10"/><line x1="1003.52" y1="168.52" x2="1004.05" y2="224.15" style="fill:none;stroke:#828eaa;stroke-miterlimit:10"/><line x1="1055.91" y1="167.47" x2="1056.96" y2="222.57" style="fill:none;stroke:#828eaa;stroke-miterlimit:10"/><polygon points="836.03 190.03 827.06 200.91 832.54 204.37 836.03 190.03" style="fill:#dbe3f3;fill-rule:evenodd"/><path d="M900.48,243.92q-4.92-.71-10.64-10.32T864.1,177.05l-28,7.69-4.6,16.94q-2.28,13-1.1,17.84c.9,3.68,1.51,7.71,5.7,9.63,1.32.6,5,1.16,6.82,1.71a21.52,21.52,0,0,0,16-1.71l-1.08,21.27a79.16,79.16,0,0,1,17.57-4.64A166.91,166.91,0,0,1,900.48,243.92Z" style="fill:#dbe3f3"/><path d="M903.51,185.87c-2.67,9.84-2.18,23.88-5.91,28.94-4.53,6.15-6.53,8.39-8.34,11.22-1.44,2.26-2.12,5.81-8.55,5.47-2.24-.12-8.83-2.3-10.67-3.77-3-2.44-4.8-4.26-7.72-6.08q-1.32-.84-6.27-12.8,6.76-9.84,7.44-13.88t-12.66-11q-8.79,4.63-12.89,3.17c-4.1-1.45-10.61-6.58-9.81-18.81s2.67-17.42,12.7-25.74q10-8.33,12.86,12.42,26-3.82,34.87,4.53C897.43,167.85,906.19,176,903.51,185.87Z" style="fill:#143b82;fill-rule:evenodd"/><path d="M851.53,206.7c0-8.48,4.76-19.26,4.11-23.21-.24-1.46-2.41,0-4.11,0-2.86,0-3.86,22.38-9.3,29.46q-2.61,3.39-12.53-6.25-2.9,18.56,4.73,22.92t19.76,2.63a3.87,3.87,0,0,0,3-1.56,19.62,19.62,0,0,0,2.08-5.64Q851.53,218.3,851.53,206.7Z" style="fill:#143b82;fill-rule:evenodd"/><path d="M853.41,434.52s-4,45.85-.17,64.4c0,0,3.54,27.74,2.51,34.6s-.41,30.66,5.24,43.14c0,0,13.19,119.44,9.17,144.59,0,0,7.65,6.84,11.67,1.63s18-80.32,19.08-109.42,9.55-99.11,11.34-105.94c0,0,1.37,33.59,4.2,39.83S942.33,606,940.68,629c0,0,7.2,69.94,5.38,77.54,0,0,11,4,13.39,2.54s23-106.24,1-172.26c0,0-10.61-26-4.91-37.1-3.54,6.89,7.3-44.15-6.15-76.86l9.26,11.45Z" style="fill:#bec9dd"/><path d="M885.07,714s7.37,19.65-6.19,20.15-48.45-5.63-51.94-8.83c0,0-6-9,3.6-9.34s38.51-1.06,44.73-6.26C875.27,709.75,881.11,715.23,885.07,714Z" style="fill:#dbe3f3"/><path d="M887.13,704.68c4.79-22.32,16.23-79.36,15.55-112.36,0,0,2.6-25.18,2.6-32.12s5.89-47.51,5.89-47.51,20.11-25.43,9.71-58.42c-2.11-6.67-29.47,1.74-29.47,1.74s-9.53,39.94-4.33,53-1.74,42.54-3.47,49.49,0,34.73,0,34.73,1.11,70.69-1.67,111.87" style="fill:#dbe3f3"/><path d="M949.11,699.46s-18.72.76-36.73,2.49c0,0-5.44,3.44,1.2,7.09s14,4.28,20,5.47c8.32,1.66,13.56,6,27.24,3.18,0,0,2.51-3.18.44-14.15C960.42,699.2,954.73,704.6,949.11,699.46Z" style="fill:#dbe3f3"/><path d="M921.74,456.88c-1.73,2.6-1.73,33.86,4.34,48.62s17.33,35.6,21.66,56.43,8.67,132,6.94,137.19l6.56,4.08s24.63-90.91-4.83-181.21c0,0-4.33-11.28-2.6-16.49s6.07-42.55,2.6-53.83Z" style="fill:#dbe3f3"/><polyline points="761.64 209.2 753.53 199.08 757.95 195.42 767.05 205.72" style="fill:#8a9cb7;fill-rule:evenodd"/><path d="M761.13,239.34S755,231,752,224.39c0,0-7.53-14.89,8.82-19.12,0,0,4.92-2.94,11.13,3.78,0,0,10.14-.48,8.49,12.38-1,8-.43,11.33-.43,11.33l-.19,4.86Z" style="fill:#dbe3f3;fill-rule:evenodd"/><path d="M773.05,238.24l-11.92,1.1S755,231,752,224.39c0,0-7.53-14.89,8.82-19.12,0,0-5.87,5.45-1.33,13.73Z" style="fill:#bec9dd;fill-rule:evenodd"/><path d="M773,211.7,792.09,234l-6.65,4.61-17.8-22.81S766.66,208.21,773,211.7Z" style="fill:#8a9cb7;fill-rule:evenodd"/><path d="M761.68,241.52c0,1.3,1.77,14.65,4.7,27.32,3.79,16.38,11.54,34.05,12.5,36.2,2.65,5.95,7.93,14.76,16.29,16.52s5.82,1.38,17.68-.13,28.78-20.18,29.34-12c.74,10.81,7.7,22.28,8.68,31.32.38,3.54-.54,7.24-.33,8.65.64,4.47.09,8.44,1,13.71s3.15,11.62,3.54,14.16c2.49,16.21-7.31,71.67-6.88,73.27.71,2.59,15.23,2.8,34.2,7.16s19-6.64,27.67-2.17,17.74-2.07,25.4.19,11.34-2.67,17.52-1.07,6.38-.05,8-2.76c.85-1.4-2.82-25.41-3.47-34.76-.61-8.74-2.61-21.66-3.82-36.08-.31-3.65-2.68-10.57-2.19-18.6.09-1.53-.11-8,.83-10.55.32-.87,1.14-.84,2.47.09q28.2,2.25,28.88-15.55c.68-17.81-40.18-84.63-55.42-90.23s-26.43-7.34-37.53-7.13c-21.93.4-47.32,5.42-59.25,12.23-5.37,3.07-10.12,11.75-14.64,17.54-1.24,1.57-5.8,3.08-9.15,4.88a69.63,69.63,0,0,0-7.52,4.92c-1.37.82-1.43-2.18-4.88-10.63s-15.08-31.61-16.12-32.28-4.87,0-10.42,1.78S761.79,238.65,761.68,241.52Z" style="fill:#134aad;fill-rule:evenodd"/><path d="M761.68,241.52c0,1.3,1.77,14.65,4.7,27.32,3.79,16.38,11.54,34.05,12.5,36.2,2.65,5.95,7.93,14.76,16.29,16.52a52.21,52.21,0,0,0,5.24,1.13,58.47,58.47,0,0,0,15.32-2,34,34,0,0,0,8.11-3.83A146.68,146.68,0,0,1,807.7,320c-5.86.52-8.82-.84-9.41-1.39-3.86-3.52-7.51-6.76-9.18-9.17C782.56,300,779.2,289,777,282.06c-1.42-4.55-1.88-8.69-2.93-12.93a146.58,146.58,0,0,0-5.25-15.93c-.82-2.18,0-5.55-.4-8.09a25.24,25.24,0,0,1,.29-7.55C763.18,239.38,761.79,238.65,761.68,241.52Z" style="fill:#134aad;fill-rule:evenodd"/><polygon points="757.11 196.32 753.8 192.14 750.27 193.74 754.35 198.46 757.11 196.32" style="fill:#231f20;fill-rule:evenodd"/><path d="M893.29,455.76S901,419.89,903,402s1.53-26.77,0-34.85-6.23-36.71-4.27-44,5.19-36.25,5.31-47.8-7.48-36.24-13.29-36.24c0,0,27.26-.26,39.68,8.22,0,0,12.47,7.56,33.74,43.1,0,0,21.07,35.17,19.53,46,0,0,2.2,20.69-30.21,14.53,0,0-1.6.92-1.76,4.59a143.82,143.82,0,0,0,1.16,20.83c1,7.17,2.48,20.8,2.48,20.8s1.52,14.31,2.29,21.54,2.11,18.28,2.11,18.28,7.08,22.77-6.78,17.64c0,0-5.17-1.31-7.85.68s-9.67.39-9.67.39-5.88-1.54-10.9.46a19.13,19.13,0,0,1-12.64.14c-1.86-.79-6.07-3.57-11.87.26,0,0-5.83,3.14-9.24,2.16Z" style="fill:#1255cc"/><path d="M952.13,351.73l.1-2.8a35.88,35.88,0,0,1-3.87-8.41c-2.55-11.28-3.72-17.83-5.6-23.3-3.72-10.84-10-19.66-10.29-22.26q-.24-2.59,9.23,4.2,5.91-2.85,8.29-1.08c2.37,1.76-.26,11.74,1.76,17.05s5,3.93,7.83,8.14,3.3,9,4.1,9.81q.78.82,17.39,5.4c0,5.48-.76,8.85-2.28,10.11-3.88,3.22-11.25,3.73-14.8,3.6-1.92-.08-3.57.1-4.93.08s-2.67-.07-4.12-.16a3,3,0,0,0-1.49-1.1Q952.86,350.93,952.13,351.73Z" style="fill:#06417c;fill-rule:evenodd"/><path d="M954.05,701.41S960.17,720,948.57,718s-35.76-8.2-38.28-10.36c0,0-1.45-5.62,5.47-6.28,12.72-1.22,23-.44,30.63-2.82C946.39,698.54,951.2,702.22,954.05,701.41Z" style="fill:#dbe3f3"/><path d="M871.27,712.22a27,27,0,0,0,14.14,2.14l2.12-9.59s-10,1.9-16.26-3.41Z" style="fill:#134aad"/><path d="M946.39,698.54l-.57-10.63s7.63,7.62,17.52,6.07l-2.06,9.6S949.6,704.26,946.39,698.54Z" style="fill:#134aad"/><path d="M954.05,703.08s1.25-8.22,1.34-9.67c0,0,5.08,1.4,8.17.22l-2.28,10S959.24,704,954.05,703.08Z" style="fill:#0b3c84"/><path d="M883.75,705.09s-.83,8.87-.9,9.42l2.56-.15,2.12-9.59Z" style="fill:#0b3c84"/><path d="M610.74,383.21s0,16.3-1.18,19.13-2.36,10.86-10.63,10.16-20.54-5.91-20.54-5.91l5-8.5Z" style="fill:#dde7ed;fill-rule:evenodd"/><path d="M584.82,376.18a30.93,30.93,0,0,1-8.5,23.38s15.41,6.91,24.44,4.79a37,37,0,0,0,10.63-25Z" style="fill:#ff8c08;fill-rule:evenodd"/><path d="M1125.4,460.33s0,19.31-1.4,22.67-2.8,12.88-12.6,12-24.35-7-24.35-7l5.88-10.07Z" style="fill:#dde7ed;fill-rule:evenodd"/><path d="M1094.68,452a36.68,36.68,0,0,1-10.08,27.71s18.27,8.19,29,5.67a43.79,43.79,0,0,0,12.6-29.6Z" style="fill:#ff8c08;fill-rule:evenodd"/><path d="M603.11,141.37s3.42,16.9,2.79,20.09-.17,11.77-8.89,12.77-22.56-1.82-22.56-1.82l3.36-9.86Z" style="fill:#dde7ed;fill-rule:evenodd"/><path d="M574.75,139.52a32.75,32.75,0,0,1-3.92,26s17.44,3.93,26.36-.17A39.14,39.14,0,0,0,603,137.25Z" style="fill:#ff8c08;fill-rule:evenodd"/><path d="M1125.53,449.06c5-10.44,3.58-29.39,1-40.66-1.33-5.91-3.13-12.49-8.39-15.49-2.1,3.63-2,5.94-.87,10-1-2.22-3.58-3.58.45-10.09,3.9-.21,6.7,0,10.64,2.05" style="fill:none;stroke:#ff8c08;stroke-miterlimit:10;fill-rule:evenodd"/><path d="M839.85,60.28a234.58,234.58,0,0,1,24-2.37c15.18-.64,32.28-.58,43,10.21-7.41,7.45-9.67,2.47-20.17,2.23,6,.85,11,6,20.76-1.31-2-9.59-4-10.68-11.59-18.9" style="fill:none;stroke:#ff8c08;stroke-miterlimit:10;fill-rule:evenodd"/></svg>